<svg version="1.1" id="Layer_1" xmlns="http://www.w3.org/2000/svg" xmlns:xlink="http://www.w3.org/1999/xlink" x="0px" y="0px"
	 width="100%" viewBox="0 0 727 502" enable-background="new 0 0 727 502" xml:space="preserve">
<path fill="#111111" opacity="1.000000" stroke="none" 
	d="
M520.000000,503.000000 
	C346.666656,503.000000 173.833328,503.000000 1.000000,503.000000 
	C1.000000,335.666656 1.000000,168.333328 1.000000,1.000000 
	C243.333328,1.000000 485.666656,1.000000 728.000000,1.000000 
	C728.000000,168.333328 728.000000,335.666656 728.000000,503.000000 
	C658.833313,503.000000 589.666687,503.000000 520.000000,503.000000 
M405.475067,422.266907 
	C358.016541,422.421539 316.721069,406.582275 282.289948,373.880737 
	C276.870026,368.733063 271.658051,368.685120 265.086823,369.316559 
	C313.698975,425.094025 397.321014,449.289978 474.836456,416.733490 
	C549.567627,385.346466 601.186157,304.682800 584.855774,212.966248 
	C571.807068,139.680084 511.655731,72.461945 422.107025,62.426785 
	C392.831940,59.146111 363.879333,62.620197 336.230042,73.741882 
	C308.782135,84.782570 284.746399,100.648849 265.262329,123.208992 
	C273.565125,125.665695 279.207458,122.563026 284.255188,116.897034 
	C287.323975,113.452377 291.174927,110.667717 294.837982,107.795044 
	C326.359131,83.075531 362.383728,70.580185 402.229431,70.412468 
	C438.582733,70.259453 472.149292,80.590683 502.311249,101.282745 
	C526.555420,117.915009 545.528076,139.260788 559.052429,165.313492 
	C576.299927,198.538269 582.071472,233.818741 577.033020,270.889771 
	C571.605835,310.820312 554.081665,344.815338 525.283020,372.643280 
	C492.289520,404.524628 452.406952,420.878265 405.475067,422.266907 
M280.783813,280.664856 
	C264.554474,252.374374 248.178375,224.166092 232.241043,195.712051 
	C229.600815,190.998276 226.664780,190.618042 222.432297,191.478958 
	C222.432297,242.907654 222.432297,293.990875 222.432297,345.148865 
	C227.103958,345.148865 231.490799,345.148865 236.235046,345.148865 
	C236.235046,306.195496 236.235046,267.596619 236.235046,229.260803 
	C237.470078,232.011581 238.506348,234.949249 240.026627,237.610382 
	C259.673889,272.001617 279.474274,306.305847 298.985931,340.773560 
	C301.524628,345.258240 304.339386,346.552246 308.883698,344.976868 
	C308.883698,293.753967 308.883698,242.665359 308.883698,191.476898 
	C304.195068,191.476898 299.806641,191.476898 295.002563,191.476898 
	C295.002563,229.393066 295.002563,266.991791 295.002563,305.493622 
	C290.035706,296.837219 285.581665,289.074554 280.783813,280.664856 
M419.524078,345.506073 
	C421.793579,345.506073 424.063080,345.506073 426.896454,345.506073 
	C411.630646,293.664368 396.561951,242.492020 381.484100,191.288544 
	C379.011658,191.288544 376.870026,191.288544 374.267273,191.288544 
	C359.273834,242.492142 344.260162,293.764923 329.168579,345.303711 
	C334.433411,345.303711 338.895203,345.303711 343.605164,345.303711 
	C346.660309,334.640442 349.773895,324.120667 352.638062,313.533417 
	C353.358185,310.871460 354.331055,309.734406 357.300842,309.770050 
	C371.119659,309.935883 384.943390,309.965179 398.760956,309.753632 
	C402.013092,309.703857 402.985992,311.063171 403.719025,313.808136 
	C406.037628,322.490540 408.874207,331.045044 410.904236,339.789764 
	C411.976135,344.407043 413.955170,346.443848 419.524078,345.506073 
M507.826141,246.368256 
	C509.761108,242.778015 511.696045,239.187759 513.471924,235.892685 
	C503.118103,232.647446 496.760803,236.315018 493.394897,246.089996 
	C492.223022,249.493317 489.926361,252.508102 488.153625,255.706009 
	C484.243164,262.760284 480.339203,269.818115 476.064331,277.539581 
	C474.826630,275.442719 473.978119,274.079376 473.200806,272.676575 
	C466.836395,261.190674 460.524536,249.675308 454.073914,238.238144 
	C453.369476,236.989136 451.959229,235.414062 450.755463,235.303207 
	C446.747284,234.934158 442.684021,235.163544 437.956665,235.163544 
	C447.968872,253.032288 457.488678,270.134674 467.158386,287.151794 
	C468.520874,289.549561 468.634888,291.289764 467.212677,293.776001 
	C458.141113,309.634216 449.272156,325.608368 440.359070,341.557007 
	C439.762939,342.623688 439.352905,343.794342 438.595154,345.506866 
	C442.216461,345.506866 445.202911,345.238342 448.119324,345.575500 
	C451.687866,345.988068 453.493378,344.425415 455.012054,341.401031 
	C457.843781,335.761597 461.033997,330.301666 464.093750,324.777435 
	C467.915527,317.877441 471.756256,310.987946 475.935425,303.470367 
	C477.197815,305.606201 478.053558,306.976318 478.834625,308.387726 
	C485.031494,319.585815 491.166656,330.818573 497.460541,341.961761 
	C498.256958,343.371826 499.763519,345.170959 501.112335,345.329102 
	C504.990326,345.783813 508.956177,345.489502 513.506714,345.489502 
	C512.614319,343.629486 512.128113,342.457489 511.512909,341.357697 
	C502.674683,325.557373 493.899689,309.720520 484.889404,294.018738 
	C483.362091,291.357208 483.417084,289.540436 484.922882,286.925629 
	C492.548431,273.684082 499.933807,260.304260 507.826141,246.368256 
M177.083862,345.503143 
	C180.846725,345.801361 179.810318,342.988098 179.814804,341.078064 
	C179.862030,320.930695 179.910507,300.782776 179.772598,280.636261 
	C179.751862,277.606995 180.472366,275.835968 183.355804,274.494537 
	C188.316360,272.186859 193.047958,269.386993 197.850296,266.807312 
	C197.850296,262.698914 197.850296,258.747772 197.850296,254.191376 
	C191.845901,257.314667 186.197647,260.252686 179.736176,263.613708 
	C179.736176,238.960022 179.736176,215.131226 179.736176,191.462433 
	C175.026581,191.462433 170.939926,191.462433 166.485077,191.462433 
	C166.485077,193.563660 166.485092,195.372009 166.485092,197.180359 
	C166.485123,218.659866 166.104752,240.149887 166.696884,261.613068 
	C166.897064,268.869354 165.041534,273.297058 158.084900,275.271698 
	C149.583450,277.684875 146.165543,283.144745 148.070435,291.831360 
	C148.129272,292.099609 148.320099,292.338928 148.599411,292.885040 
	C154.373840,289.890961 160.134109,286.904236 166.485153,283.611176 
	C166.485153,294.662903 166.485153,304.806244 166.485153,314.949554 
	C166.485153,325.033142 166.485153,335.116699 166.485153,345.506836 
	C170.222046,345.506836 173.200912,345.506836 177.083862,345.503143 
M289.525940,147.819336 
	C287.652496,159.712692 281.255127,162.563568 271.073029,156.048782 
	C268.553131,154.436462 265.984802,152.897507 263.499176,151.234451 
	C256.236969,146.375610 248.706955,145.444153 240.977325,149.916840 
	C233.401672,154.300430 232.055893,161.674316 231.753433,169.719437 
	C235.259857,169.719437 238.494812,169.719437 241.687851,169.719437 
	C243.291885,157.728104 249.767181,154.821548 259.625488,161.394333 
	C260.593628,162.039810 261.497314,162.803726 262.521454,163.339706 
	C266.483612,165.413376 270.294952,168.012268 274.502075,169.337387 
	C288.281921,173.677628 301.826691,161.353821 299.066895,147.226257 
	C296.106140,147.226257 293.132233,147.226257 289.525940,147.819336 
M362.348236,173.424408 
	C367.574463,167.743988 372.800690,162.063568 378.146667,156.253006 
	C381.514954,160.019012 385.047882,163.031509 387.389862,166.786758 
	C391.981659,174.149323 398.441833,174.498856 406.329834,172.967148 
	C399.734985,165.034760 393.390686,157.380463 387.017365,149.750397 
	C384.791840,147.086014 373.240356,145.374268 371.002472,147.899200 
	C363.798096,156.027557 356.975708,164.494431 349.445709,173.500931 
	C354.253693,173.500931 357.900024,173.500931 362.348236,173.424408 
z"/>
<path fill="#AFD2E2" opacity="1.000000" stroke="none" 
	d="
M405.968628,422.236572 
	C452.406952,420.878265 492.289520,404.524628 525.283020,372.643280 
	C554.081665,344.815338 571.605835,310.820312 577.033020,270.889771 
	C582.071472,233.818741 576.299927,198.538269 559.052429,165.313492 
	C545.528076,139.260788 526.555420,117.915009 502.311249,101.282745 
	C472.149292,80.590683 438.582733,70.259453 402.229431,70.412468 
	C362.383728,70.580185 326.359131,83.075531 294.837982,107.795044 
	C291.174927,110.667717 287.323975,113.452377 284.255188,116.897034 
	C279.207458,122.563026 273.565125,125.665695 265.262329,123.208992 
	C284.746399,100.648849 308.782135,84.782570 336.230042,73.741882 
	C363.879333,62.620197 392.831940,59.146111 422.107025,62.426785 
	C511.655731,72.461945 571.807068,139.680084 584.855774,212.966248 
	C601.186157,304.682800 549.567627,385.346466 474.836456,416.733490 
	C397.321014,449.289978 313.698975,425.094025 265.086823,369.316559 
	C271.658051,368.685120 276.870026,368.733063 282.289948,373.880737 
	C316.721069,406.582275 358.016541,422.421539 405.968628,422.236572 
z"/>
<path fill="#B1D5E4" opacity="1.000000" stroke="none" 
	d="
M280.955688,280.988373 
	C285.581665,289.074554 290.035706,296.837219 295.002563,305.493622 
	C295.002563,266.991791 295.002563,229.393066 295.002563,191.476898 
	C299.806641,191.476898 304.195068,191.476898 308.883698,191.476898 
	C308.883698,242.665359 308.883698,293.753967 308.883698,344.976868 
	C304.339386,346.552246 301.524628,345.258240 298.985931,340.773560 
	C279.474274,306.305847 259.673889,272.001617 240.026627,237.610382 
	C238.506348,234.949249 237.470078,232.011581 236.235046,229.260803 
	C236.235046,267.596619 236.235046,306.195496 236.235046,345.148865 
	C231.490799,345.148865 227.103958,345.148865 222.432297,345.148865 
	C222.432297,293.990875 222.432297,242.907654 222.432297,191.478958 
	C226.664780,190.618042 229.600815,190.998276 232.241043,195.712051 
	C248.178375,224.166092 264.554474,252.374374 280.955688,280.988373 
z"/>
<path fill="#B1D4E4" opacity="1.000000" stroke="none" 
	d="
M419.084900,345.506042 
	C413.955170,346.443848 411.976135,344.407043 410.904236,339.789764 
	C408.874207,331.045044 406.037628,322.490540 403.719025,313.808136 
	C402.985992,311.063171 402.013092,309.703857 398.760956,309.753632 
	C384.943390,309.965179 371.119659,309.935883 357.300842,309.770050 
	C354.331055,309.734406 353.358185,310.871460 352.638062,313.533417 
	C349.773895,324.120667 346.660309,334.640442 343.605164,345.303711 
	C338.895203,345.303711 334.433411,345.303711 329.168579,345.303711 
	C344.260162,293.764923 359.273834,242.492142 374.267273,191.288544 
	C376.870026,191.288544 379.011658,191.288544 381.484100,191.288544 
	C396.561951,242.492020 411.630646,293.664368 426.896454,345.506073 
	C424.063080,345.506073 421.793579,345.506073 419.084900,345.506042 
M373.082245,241.580246 
	C367.951202,259.748688 362.820160,277.917114 357.643005,296.248840 
	C371.615662,296.248840 384.871246,296.248840 398.668579,296.248840 
	C391.918640,272.550690 385.280762,249.246017 378.642883,225.941360 
	C378.272400,226.003647 377.901947,226.065933 377.531464,226.128220 
	C376.119171,231.016800 374.706848,235.905396 373.082245,241.580246 
z"/>
<path fill="#B1D4E4" opacity="1.000000" stroke="none" 
	d="
M507.614746,246.670593 
	C499.933807,260.304260 492.548431,273.684082 484.922882,286.925629 
	C483.417084,289.540436 483.362091,291.357208 484.889404,294.018738 
	C493.899689,309.720520 502.674683,325.557373 511.512909,341.357697 
	C512.128113,342.457489 512.614319,343.629486 513.506714,345.489502 
	C508.956177,345.489502 504.990326,345.783813 501.112335,345.329102 
	C499.763519,345.170959 498.256958,343.371826 497.460541,341.961761 
	C491.166656,330.818573 485.031494,319.585815 478.834625,308.387726 
	C478.053558,306.976318 477.197815,305.606201 475.935425,303.470367 
	C471.756256,310.987946 467.915527,317.877441 464.093750,324.777435 
	C461.033997,330.301666 457.843781,335.761597 455.012054,341.401031 
	C453.493378,344.425415 451.687866,345.988068 448.119324,345.575500 
	C445.202911,345.238342 442.216461,345.506866 438.595154,345.506866 
	C439.352905,343.794342 439.762939,342.623688 440.359070,341.557007 
	C449.272156,325.608368 458.141113,309.634216 467.212677,293.776001 
	C468.634888,291.289764 468.520874,289.549561 467.158386,287.151794 
	C457.488678,270.134674 447.968872,253.032288 437.956665,235.163544 
	C442.684021,235.163544 446.747284,234.934158 450.755463,235.303207 
	C451.959229,235.414062 453.369476,236.989136 454.073914,238.238144 
	C460.524536,249.675308 466.836395,261.190674 473.200806,272.676575 
	C473.978119,274.079376 474.826630,275.442719 476.064331,277.539581 
	C480.339203,269.818115 484.243164,262.760284 488.153625,255.706009 
	C489.926361,252.508102 492.223022,249.493317 493.394897,246.089996 
	C496.760803,236.315018 503.118103,232.647446 513.471924,235.892685 
	C511.696045,239.187759 509.761108,242.778015 507.614746,246.670593 
z"/>
<path fill="#B1D4E4" opacity="1.000000" stroke="none" 
	d="
M176.631821,345.505005 
	C173.200912,345.506836 170.222046,345.506836 166.485153,345.506836 
	C166.485153,335.116699 166.485153,325.033142 166.485153,314.949554 
	C166.485153,304.806244 166.485153,294.662903 166.485153,283.611176 
	C160.134109,286.904236 154.373840,289.890961 148.599411,292.885040 
	C148.320099,292.338928 148.129272,292.099609 148.070435,291.831360 
	C146.165543,283.144745 149.583450,277.684875 158.084900,275.271698 
	C165.041534,273.297058 166.897064,268.869354 166.696884,261.613068 
	C166.104752,240.149887 166.485123,218.659866 166.485092,197.180359 
	C166.485092,195.372009 166.485077,193.563660 166.485077,191.462433 
	C170.939926,191.462433 175.026581,191.462433 179.736176,191.462433 
	C179.736176,215.131226 179.736176,238.960022 179.736176,263.613708 
	C186.197647,260.252686 191.845901,257.314667 197.850296,254.191376 
	C197.850296,258.747772 197.850296,262.698914 197.850296,266.807312 
	C193.047958,269.386993 188.316360,272.186859 183.355804,274.494537 
	C180.472366,275.835968 179.751862,277.606995 179.772598,280.636261 
	C179.910507,300.782776 179.862030,320.930695 179.814804,341.078064 
	C179.810318,342.988098 180.846725,345.801361 176.631821,345.505005 
z"/>
<path fill="#AFD2E2" opacity="1.000000" stroke="none" 
	d="
M289.842133,147.522797 
	C293.132233,147.226257 296.106140,147.226257 299.066895,147.226257 
	C301.826691,161.353821 288.281921,173.677628 274.502075,169.337387 
	C270.294952,168.012268 266.483612,165.413376 262.521454,163.339706 
	C261.497314,162.803726 260.593628,162.039810 259.625488,161.394333 
	C249.767181,154.821548 243.291885,157.728104 241.687851,169.719437 
	C238.494812,169.719437 235.259857,169.719437 231.753433,169.719437 
	C232.055893,161.674316 233.401672,154.300430 240.977325,149.916840 
	C248.706955,145.444153 256.236969,146.375610 263.499176,151.234451 
	C265.984802,152.897507 268.553131,154.436462 271.073029,156.048782 
	C281.255127,162.563568 287.652496,159.712692 289.842133,147.522797 
z"/>
<path fill="#B0D3E3" opacity="1.000000" stroke="none" 
	d="
M361.947327,173.462677 
	C357.900024,173.500931 354.253693,173.500931 349.445709,173.500931 
	C356.975708,164.494431 363.798096,156.027557 371.002472,147.899200 
	C373.240356,145.374268 384.791840,147.086014 387.017365,149.750397 
	C393.390686,157.380463 399.734985,165.034760 406.329834,172.967148 
	C398.441833,174.498856 391.981659,174.149323 387.389862,166.786758 
	C385.047882,163.031509 381.514954,160.019012 378.146667,156.253006 
	C372.800690,162.063568 367.574463,167.743988 361.947327,173.462677 
z"/>
<path fill="#151617" opacity="1.000000" stroke="none" 
	d="
M373.188416,241.187103 
	C374.706848,235.905396 376.119171,231.016800 377.531464,226.128220 
	C377.901947,226.065933 378.272400,226.003647 378.642883,225.941360 
	C385.280762,249.246017 391.918640,272.550690 398.668579,296.248840 
	C384.871246,296.248840 371.615662,296.248840 357.643005,296.248840 
	C362.820160,277.917114 367.951202,259.748688 373.188416,241.187103 
z"/>
</svg>